<svg width="420" height="420" viewBox="0 0 420 420" fill="none" xmlns="http://www.w3.org/2000/svg">
<g clip-path="url(#clip0_31_3)">
<rect x="-1" y="-1" width="421" height="421" rx="45" fill="#21A55D"/>
<path d="M208.366 275.634C191.096 275.634 177.636 271.61 167.985 263.562C158.335 255.514 153.679 243.106 154.017 226.339C154.017 224.495 154.948 223.573 156.811 223.573H176.112C177.805 223.573 178.652 224.579 178.652 226.591C178.652 235.142 181.022 241.849 185.763 246.711C190.504 251.574 198.292 254.005 209.128 254.005C219.794 254.005 227.498 252.244 232.239 248.723C237.148 245.034 239.603 238.915 239.603 230.363C239.603 226.507 239.011 223.154 237.826 220.303C236.641 217.453 234.693 214.938 231.985 212.758C229.276 210.411 225.635 208.231 221.064 206.219L187.033 190.374C176.705 185.512 168.917 179.643 163.668 172.769C158.589 165.894 156.134 157.26 156.303 146.864C156.472 132.277 161.298 121.714 170.779 115.174C180.43 108.468 193.128 105.114 208.874 105.114C226.143 105.114 239.519 109.138 249 117.187C258.651 125.067 263.307 137.139 262.968 153.403C262.968 155.247 262.122 156.17 260.429 156.17H240.873C239.18 156.17 238.334 155.247 238.334 153.403C238.334 144.349 235.794 137.642 230.715 133.283C225.805 128.923 218.44 126.744 208.62 126.744C199.985 126.744 193.297 128.42 188.556 131.774C183.985 134.959 181.615 139.906 181.445 146.613C181.445 152.649 183.054 157.511 186.271 161.2C189.488 164.888 194.567 168.326 201.509 171.511L235.032 187.356C241.635 190.207 247.138 193.476 251.54 197.165C255.942 200.686 259.243 205.045 261.444 210.243C263.815 215.441 265 222.064 265 230.112C265 245.034 259.921 256.352 249.762 264.065C239.603 271.778 225.805 275.634 208.366 275.634ZM201.509 295C199.816 295 198.969 294.162 198.969 292.485V271.61L221.318 270.353V292.485C221.318 294.162 220.471 295 218.778 295H201.509ZM198.969 109.39V88.515C198.969 86.8383 199.816 86 201.509 86H218.778C220.471 86 221.318 86.8383 221.318 88.515V110.647L198.969 109.39Z" fill="white"/>
<path d="M339 224C339 295.245 281.021 353 209.5 353C137.979 353 80 295.245 80 224" stroke="white" stroke-width="16"/>
</g>
<defs>
<clipPath id="clip0_31_3">
<rect width="420" height="420" fill="white"/>
</clipPath>
</defs>
</svg>
