<svg width="420" height="420" viewBox="0 0 420 420" fill="none" xmlns="http://www.w3.org/2000/svg">
<rect x="22" y="22" width="375" height="375" rx="45" fill="#21A55D"/>
<path d="M208.488 285.673C193.086 285.673 181.081 282.072 172.473 274.871C163.866 267.67 159.713 256.569 160.015 241.567C160.015 239.917 160.846 239.091 162.507 239.091H179.722C181.232 239.091 181.987 239.992 181.987 241.792C181.987 249.443 184.101 255.444 188.329 259.794C192.557 264.145 199.504 266.32 209.168 266.32C218.681 266.32 225.552 264.745 229.78 261.594C234.159 258.294 236.349 252.818 236.349 245.167C236.349 241.717 235.821 238.716 234.763 236.166C233.706 233.616 231.97 231.365 229.554 229.415C227.138 227.315 223.891 225.365 219.814 223.564L189.462 209.387C180.25 205.037 173.304 199.786 168.623 193.635C164.093 187.485 161.903 179.759 162.054 170.457C162.205 157.406 166.509 147.954 174.965 142.103C183.572 136.103 194.898 133.102 208.941 133.102C224.344 133.102 236.274 136.703 244.73 143.904C253.337 150.955 257.49 161.756 257.188 176.308C257.188 177.958 256.433 178.783 254.923 178.783H237.482C235.972 178.783 235.217 177.958 235.217 176.308C235.217 168.207 232.951 162.206 228.421 158.306C224.042 154.405 217.473 152.455 208.715 152.455C201.014 152.455 195.049 153.955 190.821 156.955C186.743 159.806 184.629 164.231 184.478 170.232C184.478 175.633 185.913 179.984 188.782 183.284C191.651 186.584 196.181 189.66 202.373 192.51L232.272 206.687C238.161 209.237 243.069 212.163 246.995 215.463C250.921 218.614 253.866 222.514 255.829 227.165C257.943 231.815 259 237.741 259 244.942C259 258.294 254.47 268.42 245.409 275.321C236.349 282.222 224.042 285.673 208.488 285.673ZM202.373 303C200.863 303 200.108 302.25 200.108 300.75V282.072L220.04 280.947V300.75C220.04 302.25 219.285 303 217.775 303H202.373ZM200.108 136.928V118.25C200.108 116.75 200.863 116 202.373 116H217.775C219.285 116 220.04 116.75 220.04 118.25V138.053L200.108 136.928Z" fill="white"/>
<path d="M325 239C325 302.789 273.289 354.5 209.5 354.5C145.711 354.5 94 302.789 94 239" stroke="white" stroke-width="16"/>
</svg>
